<svg width="8" height="8" viewBox="0 0 8 8" fill="none" xmlns="http://www.w3.org/2000/svg">
<path fill-rule="evenodd" clip-rule="evenodd" d="M2.43064 5.76429C2.56081 5.63411 2.77187 5.63411 2.90204 5.76429L3.99967 6.86192L5.09731 5.76429C5.22748 5.63411 5.43854 5.63411 5.56871 5.76429C5.69888 5.89446 5.69888 6.10552 5.56871 6.23569L4.23538 7.56903C4.1052 7.6992 3.89415 7.6992 3.76397 7.56903L2.43064 6.23569C2.30046 6.10552 2.30046 5.89446 2.43064 5.76429Z" fill="#2E8B57"/>
<path fill-rule="evenodd" clip-rule="evenodd" d="M4.00033 0.333344C4.18442 0.333344 4.33366 0.482582 4.33366 0.666677V7.33334C4.33366 7.51744 4.18442 7.66668 4.00033 7.66668C3.81623 7.66668 3.66699 7.51744 3.66699 7.33334V0.666677C3.66699 0.482582 3.81623 0.333344 4.00033 0.333344Z" fill="#2E8B57"/>
</svg>
