<svg xmlns="http://www.w3.org/2000/svg" xmlns:xlink="http://www.w3.org/1999/xlink" viewBox="0 0 821.43 225.66">
  <defs>
    <style>
      .cls-1 {
        fill: url(#Безымянный_градиент_7);
      }

      .cls-2 {
        fill: url(#Безымянный_градиент_7-2);
      }

      .cls-3 {
        fill: url(#Безымянный_градиент_7-3);
      }

      .cls-4 {
        fill: url(#Безымянный_градиент_7-4);
      }
    </style>
    <linearGradient id="Безымянный_градиент_7" data-name="Безымянный градиент 7" x1="-98.36" y1="112.83" x2="1035.81" y2="112.83" gradientUnits="userSpaceOnUse">
      <stop offset="0" stop-color="#308b6f"/>
      <stop offset="0.06" stop-color="#2e866f"/>
      <stop offset="0.44" stop-color="#25696c"/>
      <stop offset="0.76" stop-color="#20576b"/>
      <stop offset="1" stop-color="#1e516a"/>
    </linearGradient>
    <linearGradient id="Безымянный_градиент_7-2" x1="-112.42" y1="145.44" x2="1021.75" y2="145.44" xlink:href="#Безымянный_градиент_7"/>
    <linearGradient id="Безымянный_градиент_7-3" x1="-112.42" y1="147.4" x2="1021.75" y2="147.4" xlink:href="#Безымянный_градиент_7"/>
    <linearGradient id="Безымянный_градиент_7-4" x1="-112.42" y1="117.95" x2="1021.75" y2="117.95" xlink:href="#Безымянный_градиент_7"/>
  </defs>
  <g id="Слой_2" data-name="Слой 2">
    <g id="Слой_1-2" data-name="Слой 1">
      <g>
        <path class="cls-1" d="M0,0H45.49L104,160.31,163.3,0h45.43L125,225.66H82.32Z"/>
        <path class="cls-2" d="M355.93,156.52h-123q2.67,16.28,14.24,25.87T276.69,192a51.07,51.07,0,0,0,36.89-15l32.25,15.14q-12.06,17.12-28.89,25.32t-40,8.2q-35.91,0-58.49-22.65T195.9,146.28q0-34.92,22.51-58t56.46-23.08q36,0,58.62,23.08t22.58,60.93Zm-38.29-30.16a38.41,38.41,0,0,0-15-20.75,43.38,43.38,0,0,0-25.92-8,45.88,45.88,0,0,0-28.1,9q-7.59,5.61-14,19.77Z"/>
        <path class="cls-3" d="M378,73.07h32.82V92.29Q416.1,80.92,424.94,75a34.22,34.22,0,0,1,19.35-5.89,35.77,35.77,0,0,1,15.57,3.93l-11.92,33q-6.74-3.37-11.08-3.37-8.83,0-14.94,10.94t-6.1,42.92L416,164v61.71H378Z"/>
        <path class="cls-4" d="M591.42,10.24H629.7v211.5H591.42V205.61Q580.2,216.26,568.93,221a63.16,63.16,0,0,1-24.44,4.69q-29.57,0-51.14-22.93t-21.57-57q0-35.34,20.87-57.92t50.71-22.59a64.44,64.44,0,0,1,25.78,5.2A70.31,70.31,0,0,1,591.42,86Zm-40.25,90.32q-17.76,0-29.5,12.55T509.93,145.3q0,19.77,11.95,32.54A38.71,38.71,0,0,0,551.3,190.6q18,0,29.92-12.55t11.88-32.89q0-19.92-11.88-32.26T551.17,100.56Z"/>
        <path class="cls-2" d="M821.29,156.52h-123q2.65,16.28,14.23,25.87T742,192a51.07,51.07,0,0,0,36.89-15l32.26,15.14q-12.06,17.12-28.89,25.32t-40,8.2q-35.91,0-58.49-22.65t-22.58-56.73q0-34.92,22.51-58t56.45-23.08q36,0,58.63,23.08t22.58,60.93ZM783,126.36a38.46,38.46,0,0,0-15-20.75,43.4,43.4,0,0,0-25.92-8,45.86,45.86,0,0,0-28.1,9q-7.59,5.61-14,19.77Z"/>
      </g>
    </g>
  </g>
</svg>
